<svg
    viewBox="0 0 1603 1024">
    <path
        d="M1010.042131 836.203222L837.472119 1008.773234c-18.610492 18.610492-50.755886 18.610492-71.05824 0L15.226766 255.894259c-18.610492-18.610492-18.610492-50.755886 0-71.058241L187.796778 13.957869c18.610492-18.610492 50.755886-18.610492 71.058241 0l751.187112 751.187112c18.610492 20.302354 18.610492 52.447749 0 71.058241z"></path>
    <path
        d="M1416.089219 13.957869L1588.659232 186.527881c18.610492 18.610492 18.610492 50.755886 0 71.05824L835.780256 1008.773234c-18.610492 18.610492-50.755886 18.610492-71.05824 0L593.843866 836.203222c-18.610492-18.610492-18.610492-50.755886 0-71.058241L1346.722842 13.957869c18.610492-18.610492 50.755886-18.610492 69.366377 0z"></path>
</svg>