<svg
    viewBox="0 0 1024 1024">
    <path
        d="M476.891429 880.64c-77.531429 0-134.582857-117.028571-134.582858-272.091429 0-57.051429 8.777143-111.177143 23.405715-156.525714 5.851429-16.091429 23.405714-24.868571 39.497143-17.554286 13.165714 5.851429 20.48 21.942857 16.091428 35.108572-13.165714 39.497143-20.48 87.771429-20.48 137.508571 0 130.194286 45.348571 213.577143 76.068572 213.577143v59.977143z"></path>
    <path
        d="M605.622857 880.64h-130.194286v-58.514286h130.194286c105.325714 0 198.948571-74.605714 216.502857-178.468571 16.091429-98.011429-36.571429-191.634286-125.805714-231.131429l-5.851429-2.925714c-71.68-32.182857-117.028571-102.4-117.028571-179.931429v-1.462857c0-16.091429 13.165714-29.257143 29.257143-29.257143s29.257143 13.165714 29.257143 29.257143v1.462857c0 54.125714 32.182857 103.862857 81.92 125.805715l5.851428 2.925714c111.177143 48.274286 178.468571 163.84 160.914286 286.72-17.554286 137.508571-137.508571 235.52-275.017143 235.52z"></path>
    <path
        d="M550.034286 880.64v-58.514286c30.72 0 76.068571-83.382857 76.068571-213.577143 0-84.845714-30.72-136.045714-46.811428-153.6-58.514286-64.365714-92.16-147.748571-92.16-235.52v-67.291428c0-16.091429 13.165714-29.257143 29.257142-29.257143s29.257143 13.165714 29.257143 29.257143V219.428571c0 73.142857 27.794286 143.36 76.068572 196.022858 19.017143 20.48 62.902857 92.16 62.902857 193.097142 0 155.062857-58.514286 272.091429-134.582857 272.091429z"></path>
    <path
        d="M327.68 413.988571l5.851429-2.925714c71.68-32.182857 117.028571-102.4 117.028571-179.931428v-49.737143c0-14.628571-10.24-27.794286-24.868571-30.72-19.017143-2.925714-33.645714 11.702857-33.645715 29.257143v51.2c0 54.125714-32.182857 103.862857-81.92 125.805714l-5.851428 2.925714c-111.177143 48.274286-177.005714 163.84-160.914286 286.72 14.628571 102.4 84.845714 182.857143 178.468571 216.502857 19.017143 7.314286 39.497143-7.314286 39.497143-27.794285 0-11.702857-7.314286-23.405714-19.017143-27.794286-71.68-26.331429-127.268571-86.308571-138.971428-165.302857-17.554286-96.548571 35.108571-190.171429 124.342857-228.205715z"></path>
    <path
        d="M416.914286 465.188571c-16.091429-7.314286-35.108571 1.462857-39.497143 17.554286-14.628571 45.348571-23.405714 99.474286-23.405714 156.525714 0 155.062857 58.514286 272.091429 134.582857 272.091429h130.194285c137.508571 0 257.462857-98.011429 276.48-234.057143 16.091429-122.88-49.737143-238.445714-160.914285-286.72l-5.851429-2.925714c-49.737143-21.942857-81.92-71.68-81.92-125.805714v-1.462858c0-16.091429-13.165714-29.257143-29.257143-29.257142s-29.257143 13.165714-29.257143 29.257142v1.462858c0 77.531429 45.348571 147.748571 117.028572 179.931428l5.851428 2.925714c87.771429 38.034286 141.897143 133.12 125.805715 231.131429-16.091429 93.622857-93.622857 163.84-187.245715 175.542857 29.257143-49.737143 48.274286-124.342857 48.274286-210.651428 0-100.937143-43.885714-172.617143-62.902857-193.097143C585.142857 392.045714 558.811429 321.828571 558.811429 248.685714v-67.291428c0-16.091429-13.165714-29.257143-29.257143-29.257143s-29.257143 13.165714-29.257143 29.257143V248.685714c0 87.771429 32.182857 171.154286 92.16 235.52 16.091429 17.554286 48.274286 68.754286 46.811428 153.6 0 130.194286-45.348571 213.577143-76.068571 213.577143h-73.142857c-30.72 0-76.068571-83.382857-76.068572-213.577143 0-49.737143 7.314286-99.474286 20.48-137.508571 4.388571-14.628571-2.925714-29.257143-17.554285-35.108572z"></path>
    <path
        d="M334.994286 892.342857c19.017143 7.314286 39.497143-7.314286 39.497143-27.794286 0-11.702857-7.314286-23.405714-19.017143-27.794285-71.68-26.331429-127.268571-86.308571-138.971429-165.302857-16.091429-98.011429 36.571429-191.634286 124.342857-229.668572l5.851429-2.925714c71.68-32.182857 117.028571-102.4 117.028571-179.931429v-49.737143c0-14.628571-10.24-27.794286-24.868571-30.72-19.017143-2.925714-33.645714 11.702857-33.645714 29.257143v51.2c0 54.125714-32.182857 103.862857-81.92 125.805715l-5.851429 2.925714c-111.177143 48.274286-177.005714 163.84-160.914286 286.72 13.165714 102.4 84.845714 184.32 178.468572 217.965714z"></path>
</svg>