<svg
    viewBox="0 0 1024 1024"
    p-id="2993">
    <path
        d="M924.059071 466.804651c-1.883153-38.201592-23.71703-72.597407-57.490703-90.554597L259.482496 50.839124c-33.877363-18.192668-74.843143-17.130342-107.729759 2.796968-33.221771 19.646342-53.365827 55.596846-52.777802 94.190454l4.364367 729.352372c-0.058869 40.135587 22.20917 76.970471 57.771671 95.578569a105.509444 105.509444 0 0 0 50.897993 12.778685 110.309981 110.309981 0 0 0 61.222223-18.838225l602.848609-404.13076c31.703207-21.277962 49.913268-57.630518 47.979273-95.762536z m-746.979759 459.647329l1.345969-832.288954 692.623186 371.223406-693.969155 461.065548z m50.880599-79.727969"
        p-id="2994"></path>
</svg>