<svg
    viewBox="0 0 1606 1024">
    <path
        d="M15.233058 836.12562l172.641322 172.641322c18.618182 18.618182 50.77686 18.618182 71.087603 0l545.004959-545.004959 545.004959 545.004959c18.618182 18.618182 50.77686 18.618182 71.087603 0l172.641322-172.641322c18.618182-18.618182 18.618182-50.77686 0-71.087603L1015.53719 192.952066c-1.692562-1.692562-3.385124-5.077686-5.077686-6.770248L837.818182 13.540496c-10.155372-8.46281-22.003306-13.540496-35.543802-13.540496s-25.38843 5.077686-35.543801 15.233058L594.089256 186.181818c-1.692562 1.692562-3.385124 3.385124-5.077686 6.770248L15.233058 766.730579c-18.618182 18.618182-18.618182 50.77686 0 69.395041z"></path>
</svg>